<?xml version="1.0" encoding="UTF-8"?>
<svg version="1.1" xmlns="http://www.w3.org/2000/svg" width="362" height="125">
<path d="M0 0 C6.26228386 5.2296028 11.09853675 12.63770629 13.625 20.375 C13.295 21.365 12.965 22.355 12.625 23.375 C12.11453125 22.92769531 11.6040625 22.48039062 11.078125 22.01953125 C-2.62463478 10.62486044 -18.96155686 8.18909008 -36.375 9.375 C-45.26440183 10.36632612 -54.0879938 11.93422005 -62.91137695 13.38427734 C-98.70873274 19.21867651 -98.70873274 19.21867651 -110.375 12.375 C-114.16151448 9.14690079 -117.18293269 5.27572116 -118.375 0.375 C-118 -1.9375 -118 -1.9375 -117.375 -3.625 C-116.323125 -3.00625 -115.27125 -2.3875 -114.1875 -1.75 C-105.35732344 3.22796806 -97.68170044 3.82769898 -87.6484375 2.61328125 C-86.91037872 2.52490494 -86.17231995 2.43652863 -85.41189575 2.34547424 C-76.93748289 1.2726203 -68.6059632 -0.43859834 -60.25 -2.1875 C-57.94012232 -2.66512997 -55.6298392 -3.14068941 -53.31912231 -3.61424255 C-51.9016232 -3.90532367 -50.48464417 -4.19895516 -49.06832886 -4.4957428 C-32.99873265 -7.82293841 -14.31074985 -9.59501705 0 0 Z " fill="#FF8E2A" transform="translate(123.375,101.625)"/>
<path d="M0 0 C10.47482163 -0.4701446 21.35345497 2.55293452 29.48828125 9.21484375 C35.31636818 15.1440489 39.71430237 21.35847 42.48828125 29.21484375 C39.6263007 28.23359328 37.5393801 27.25627525 35.17578125 25.33984375 C24.01907103 16.51825892 10.24871352 15.0192253 -3.51171875 16.21484375 C-13.1155242 17.38909277 -22.65596125 19.19388451 -32.02734375 21.59375 C-41.87145346 24.10386531 -51.13046192 25.69887591 -61.32421875 25.77734375 C-62.80039673 25.79909668 -62.80039673 25.79909668 -64.30639648 25.82128906 C-72.15997234 25.71095012 -78.34569432 23.89908185 -84.38671875 18.77734375 C-87.73933809 14.73447926 -89.7625544 11.45899421 -90.51171875 6.21484375 C-88.25550712 7.30116787 -86.13818331 8.4483034 -84.01171875 9.77734375 C-70.18984479 17.72492128 -48.18513625 9.38094786 -34.00317383 5.88769531 C-22.61946718 3.08571043 -11.68079762 0.9991351 0 0 Z " fill="#FF8D2B" transform="translate(90.51171875,77.78515625)"/>
<path d="M0 0 C2.9375 0.1875 2.9375 0.1875 3.9375 1.1875 C4.02525605 3.33308827 4.04445219 5.48154421 4.03515625 7.62890625 C4.03265869 8.80396729 4.03016113 9.97902832 4.02758789 11.18969727 C4.01393188 13.44704712 4.01393188 13.44704712 4 15.75 C3.9690625 22.8965625 3.9690625 22.8965625 3.9375 30.1875 C13.5075 30.1875 23.0775 30.1875 32.9375 30.1875 C32.8583726 21.06262565 32.8583726 21.06262565 32.75732422 11.93798828 C32.7523291 10.80603027 32.74733398 9.67407227 32.7421875 8.5078125 C32.72647705 6.76395264 32.72647705 6.76395264 32.71044922 4.98486328 C32.9375 2.1875 32.9375 2.1875 34.9375 0.1875 C37.9375 -0.0625 37.9375 -0.0625 40.9375 0.1875 C43.63636885 2.88636885 43.19617215 4.28359614 43.2121582 8.05834961 C43.22645622 9.90552834 43.22645622 9.90552834 43.24104309 11.7900238 C43.24078167 13.13996407 43.23984464 14.48990436 43.23828125 15.83984375 C43.24216699 17.21985504 43.24650141 18.59986513 43.25126648 19.97987366 C43.25873415 22.87423578 43.25843364 25.76847594 43.25317383 28.6628418 C43.24738004 32.37320238 43.26430469 36.08306363 43.2875185 39.79334164 C43.30224649 42.64407778 43.30312883 45.49469344 43.30000877 48.34546089 C43.30052252 49.71341503 43.30577027 51.08137582 43.31582069 52.44929314 C43.32814742 54.3619087 43.319464 56.27462491 43.30981445 58.18725586 C43.31044388 59.27598495 43.3110733 60.36471405 43.3117218 61.48643494 C42.9375 64.1875 42.9375 64.1875 41.60954285 66.07423401 C39.9375 67.1875 39.9375 67.1875 36.8125 67 C35.389375 66.5978125 35.389375 66.5978125 33.9375 66.1875 C32.63274382 63.57798764 32.82448428 61.66048715 32.83984375 58.7421875 C32.84234131 57.77265137 32.84483887 56.80311523 32.84741211 55.80419922 C32.85651611 54.56943848 32.86562012 53.33467773 32.875 52.0625 C32.895625 48.14375 32.91625 44.225 32.9375 40.1875 C23.3675 40.1875 13.7975 40.1875 3.9375 40.1875 C4.01661229 48.32508424 4.01661229 48.32508424 4.11767578 56.46240234 C4.12516846 57.97761475 4.12516846 57.97761475 4.1328125 59.5234375 C4.14328613 60.56032715 4.15375977 61.5972168 4.16455078 62.66552734 C3.9375 65.1875 3.9375 65.1875 1.9375 67.1875 C-3.63068182 66.61931818 -3.63068182 66.61931818 -5.0625 65.1875 C-5.16700769 63.23469816 -5.20105374 61.27809455 -5.20776367 59.32250977 C-5.21414352 58.06773331 -5.22052338 56.81295685 -5.22709656 55.52015686 C-5.22862512 54.13974038 -5.22973914 52.75932338 -5.23046875 51.37890625 C-5.23367967 49.97265081 -5.23704362 48.56639571 -5.24055481 47.16014099 C-5.24655232 44.20855942 -5.24839408 41.25700716 -5.24780273 38.30541992 C-5.24770109 34.51769954 -5.26135285 30.73016653 -5.27857494 26.94249058 C-5.28967742 24.03691235 -5.29172248 21.13137967 -5.29119301 18.22578239 C-5.2923758 16.82909436 -5.29681421 15.43240524 -5.30452538 14.03573799 C-5.31428925 12.08447799 -5.31019234 10.13316336 -5.30541992 8.18188477 C-5.30684494 7.07015396 -5.30826996 5.95842316 -5.30973816 4.81300354 C-4.9371191 0.85603885 -3.90964291 0.23936589 0 0 Z " fill="#FFFFFF" transform="translate(95.0625,3.8125)"/>
<path d="M0 0 C2.4375 0.375 2.4375 0.375 4.4375 2.375 C4.75634766 4.52978516 4.75634766 4.52978516 4.8515625 7.1640625 C4.89023437 8.10507813 4.92890625 9.04609375 4.96875 10.015625 C4.9996875 11.00046875 5.030625 11.9853125 5.0625 13 C5.10117187 13.99257813 5.13984375 14.98515625 5.1796875 16.0078125 C5.2741314 18.46335385 5.35969875 20.9188841 5.4375 23.375 C6.03175781 22.82972656 6.62601562 22.28445312 7.23828125 21.72265625 C12.68034249 16.77148078 18.22415169 12.00068008 23.96484375 7.3984375 C25.98203403 5.74771939 27.85841782 4.03786618 29.75 2.25 C32.4375 0.375 32.4375 0.375 35.8125 0.5625 C36.67875 0.830625 37.545 1.09875 38.4375 1.375 C39.25 4.0625 39.25 4.0625 39.4375 7.375 C37.34375 9.71484375 37.34375 9.71484375 34.4375 12.375 C33.42028635 13.33042416 32.40336756 14.28616233 31.38671875 15.2421875 C30.30057321 16.24597677 29.21330254 17.24854975 28.125 18.25 C27.5575708 18.7744873 26.9901416 19.29897461 26.40551758 19.83935547 C22.59517499 23.34918077 18.71971552 26.76376157 14.73046875 30.0703125 C13.20286345 31.30562333 13.20286345 31.30562333 13.4375 33.375 C14.88349505 35.02253423 14.88349505 35.02253423 16.8046875 36.75390625 C17.52140625 37.42413818 18.238125 38.09437012 18.9765625 38.78491211 C19.74742187 39.49526611 20.51828125 40.20562012 21.3125 40.9375 C22.0859375 41.65752197 22.859375 42.37754395 23.65625 43.11938477 C28.64374201 47.75189328 33.66565541 52.34499646 38.75 56.87109375 C41.4285151 59.25819633 41.4285151 59.25819633 41.625 61.8125 C41.4375 64.375 41.4375 64.375 39.4375 66.375 C36.6953125 66.83203125 36.6953125 66.83203125 33.4375 66.375 C31.13908842 64.66462359 29.30248393 63.07702512 27.3125 61.0625 C26.17619668 59.96311212 25.03946761 58.86416414 23.90234375 57.765625 C23.32983887 57.20294922 22.75733398 56.64027344 22.16748047 56.06054688 C19.4567093 53.41940037 16.66788287 50.86617964 13.875 48.3125 C12.92496094 47.43464844 11.97492188 46.55679688 10.99609375 45.65234375 C8.87156292 43.76134913 6.72237567 42.06084232 4.4375 40.375 C4.44797363 41.09155762 4.45844727 41.80811523 4.46923828 42.54638672 C4.51071299 45.78088905 4.53679892 49.01533553 4.5625 52.25 C4.57925781 53.37792969 4.59601563 54.50585938 4.61328125 55.66796875 C4.61972656 56.74433594 4.62617188 57.82070313 4.6328125 58.9296875 C4.64328613 59.92468262 4.65375977 60.91967773 4.66455078 61.94482422 C4.4375 64.375 4.4375 64.375 2.4375 66.375 C-0.6875 66.5 -0.6875 66.5 -3.5625 66.375 C-5.55359093 63.04686018 -5.81957783 60.5117767 -5.8371582 56.66015625 C-5.84669022 55.51216553 -5.85622223 54.3641748 -5.86604309 53.18139648 C-5.86513168 51.94591064 -5.86422028 50.7104248 -5.86328125 49.4375 C-5.86756638 48.16527588 -5.8718515 46.89305176 -5.87626648 45.58227539 C-5.88200985 42.89227482 -5.88344503 40.20265798 -5.87817383 37.51269531 C-5.87237477 34.06927479 -5.88932511 30.6263914 -5.9125185 27.18305969 C-5.93080727 23.89287708 -5.92707048 20.6027243 -5.92578125 17.3125 C-5.934991 16.07701416 -5.94420074 14.84152832 -5.95368958 13.56860352 C-5.94746078 12.42061279 -5.94123199 11.27262207 -5.93481445 10.08984375 C-5.93544388 9.08042725 -5.9360733 8.07101074 -5.9367218 7.03100586 C-5.37273653 3.02817067 -4.13363122 0.60492164 0 0 Z " fill="#FFFFFF" transform="translate(275.5625,3.625)"/>
<path d="M0 0 C5.040921 4.75258429 8.55469172 9.16097389 9.37109375 16.19921875 C9.52370814 24.21596313 8.96781477 30.48797293 4 37 C-1.65609138 42.57479232 -7.39940967 45.0233071 -15.3125 45.375 C-20.96295645 45.29759649 -25.079561 43.61591223 -30 41 C-30.01981934 41.56509277 -30.03963867 42.13018555 -30.06005859 42.71240234 C-30.15518236 45.26707997 -30.26491058 47.82092541 -30.375 50.375 C-30.42140625 51.70917969 -30.42140625 51.70917969 -30.46875 53.0703125 C-30.50742188 53.92109375 -30.54609375 54.771875 -30.5859375 55.6484375 C-30.6173584 56.43395996 -30.6487793 57.21948242 -30.68115234 58.02880859 C-31 60 -31 60 -33 62 C-38.56818182 61.43181818 -38.56818182 61.43181818 -40 60 C-40.11879793 58.61109126 -40.17003127 57.21630271 -40.19287109 55.82250977 C-40.20893402 54.93390762 -40.22499695 54.04530548 -40.24154663 53.129776 C-40.28607824 49.02670979 -40.32713459 44.92380876 -40.35009766 40.82055664 C-40.3665769 38.66452174 -40.39375916 36.50853964 -40.43212891 34.3527832 C-40.48731508 31.23620387 -40.50884366 28.12091061 -40.5234375 25.00390625 C-40.54610687 24.05246231 -40.56877625 23.10101837 -40.59213257 22.1207428 C-40.56815608 14.4065398 -38.43959037 7.99937034 -33.35238647 2.08424377 C-24.43085061 -6.73217995 -10.00895776 -7.25286794 0 0 Z M-28.5 11.625 C-30.53776529 16.20997191 -30.78850613 20.0597677 -30 25 C-27.67076821 29.83763525 -24.81852225 32.63619663 -20 35 C-15.2837784 35.82978405 -11.96975323 35.49402523 -7.6875 33.3125 C-3.10866717 29.37257408 -0.32777982 26.41665916 0.16015625 20.12109375 C-0.24407784 14.7674569 -2.822527 11.04366925 -6.75 7.5625 C-15.27955131 3.46175418 -21.92277356 4.71891223 -28.5 11.625 Z " fill="#FFFFFF" transform="translate(257,26)"/>
<path d="M0 0 C5.32317492 4.27583545 7.82226836 9.02931054 9.1640625 15.73828125 C9.66391732 20.93677138 9.66391732 20.93677138 8.14135742 23.37817383 C5.06933877 25.49130087 1.82002494 25.21928826 -1.78515625 25.25 C-2.55777298 25.2679512 -3.33038971 25.2859024 -4.12641907 25.30439758 C-6.5920365 25.35854229 -9.05745993 25.39240856 -11.5234375 25.42578125 C-13.19599056 25.45895077 -14.86851801 25.4934401 -16.54101562 25.52929688 C-20.639183 25.61427074 -24.73729244 25.68106145 -28.8359375 25.73828125 C-25.84753668 30.36188858 -24.2598885 32.73402561 -19.0546875 34.4140625 C-15.76188892 34.89522849 -13.05586649 34.17767102 -9.8828125 33.296875 C-7.44549801 32.63173002 -5.34660721 32.43395765 -2.8359375 32.73828125 C-0.8359375 34.73828125 -0.8359375 34.73828125 -0.7734375 38.17578125 C-1.8359375 41.73828125 -1.8359375 41.73828125 -4.5859375 43.67578125 C-11.97465857 46.08811523 -20.2141057 45.90686514 -27.2734375 42.67578125 C-34.09459282 38.7447583 -38.56084312 33.32192917 -40.8359375 25.73828125 C-41.76156533 17.16336792 -40.47120195 10.69117793 -35.7109375 3.55078125 C-26.12931684 -7.07610712 -11.4841138 -7.63784711 0 0 Z M-26.8359375 8.73828125 C-29.24819057 11.93172765 -29.24819057 11.93172765 -29.8359375 15.73828125 C-20.5959375 15.73828125 -11.3559375 15.73828125 -1.8359375 15.73828125 C-3.06825765 9.57668051 -4.04430379 9.2586652 -8.8359375 5.73828125 C-15.12446317 2.59401841 -21.56274656 4.83611996 -26.8359375 8.73828125 Z " fill="#FFFFFF" transform="translate(181.8359375,26.26171875)"/>
<path d="M0 0 C5.18316555 1.37201441 8.06405232 4.7037012 11 9 C15.63366957 18.25163178 13.26462413 30.40562488 10.4453125 39.87890625 C6.0893639 52.74187749 0.10786785 65.05127003 -5.8125 77.25 C-6.26826416 78.20914307 -6.72402832 79.16828613 -7.19360352 80.15649414 C-7.63115967 81.03813232 -8.06871582 81.91977051 -8.51953125 82.828125 C-8.90214111 83.6109082 -9.28475098 84.39369141 -9.67895508 85.20019531 C-11 87 -11 87 -13.02124023 87.83666992 C-15.9162193 88.07562624 -17.04269929 86.86512892 -19.25 85.0625 C-19.95640625 84.49660156 -20.6628125 83.93070312 -21.390625 83.34765625 C-21.92171875 82.90292969 -22.4528125 82.45820312 -23 82 C-21.67117889 77.73055437 -20.03247629 73.83593632 -18.0234375 69.84375 C-17.43852539 68.66651367 -16.85361328 67.48927734 -16.25097656 66.27636719 C-15.94421997 65.6599939 -15.63746338 65.04362061 -15.32141113 64.40856934 C-10.50116375 54.68787182 -5.93037459 44.97147702 -2.25 34.75 C-1.784729 33.45932617 -1.784729 33.45932617 -1.31005859 32.14257812 C1.8850526 22.93046266 5.51317923 12.39034397 1.5 2.9375 C1.005 1.968125 0.51 0.99875 0 0 Z " fill="#979797" transform="translate(24,0)"/>
<path d="M0 0 C6.03786662 3.59396823 11.41741572 7.92052535 13.375 14.9375 C16.92361777 34.1439364 6.68803652 54.5177577 -1.0625 71.5625 C-1.46154541 72.47330322 -1.86059082 73.38410645 -2.27172852 74.32250977 C-5.21150522 80.58036743 -5.21150522 80.58036743 -8.97265625 82.58203125 C-11.8298377 82.97650662 -14.49298696 83.20289224 -17.375 83.125 C-18.24898437 83.10695313 -19.12296875 83.08890625 -20.0234375 83.0703125 C-20.67570312 83.04710938 -21.32796875 83.02390625 -22 83 C-20.63223181 79.46736159 -19.1028444 76.07185677 -17.42578125 72.67578125 C-1.64031153 41.85986466 -1.64031153 41.85986466 2 8 C1.36971413 6.31923769 0.70881051 4.64918461 0 3 C0 2.01 0 1.02 0 0 Z " fill="#939393" transform="translate(36,6)"/>
<path d="M0 0 C0.99 0.103125 1.98 0.20625 3 0.3125 C5.23077928 3.65866892 5.24524037 4.70843959 5.22705078 8.61010742 C5.22682419 10.23144844 5.22682419 10.23144844 5.22659302 11.88554382 C5.21627045 13.05124405 5.20594788 14.21694427 5.1953125 15.41796875 C5.1924826 16.61231033 5.18965271 17.80665192 5.18673706 19.03718567 C5.17552677 22.85822497 5.15042037 26.67903134 5.125 30.5 C5.11497131 33.08788724 5.10584527 35.67577816 5.09765625 38.26367188 C5.07558465 44.61336096 5.0420986 50.96291384 5 57.3125 C5.89831543 57.30202637 6.79663086 57.29155273 7.72216797 57.28076172 C11.05064447 57.2467053 14.37893622 57.22161382 17.70751953 57.20263672 C19.14895547 57.19257037 20.59037095 57.1789162 22.03173828 57.16162109 C24.10193934 57.13739988 26.17187076 57.12602359 28.2421875 57.1171875 C30.11173096 57.10147705 30.11173096 57.10147705 32.01904297 57.08544922 C35 57.3125 35 57.3125 37 59.3125 C37.25 61.8125 37.25 61.8125 37 64.3125 C34.39694108 66.91555892 32.57721461 66.56074978 29.03100586 66.59039307 C27.80909546 66.58432037 27.80909546 66.58432037 26.5625 66.578125 C25.72662354 66.58003845 24.89074707 66.5819519 24.02954102 66.58392334 C22.26090189 66.58528536 20.49225277 66.58158776 18.72363281 66.57324219 C16.01084006 66.56254275 13.29870956 66.57313676 10.5859375 66.5859375 C8.8697902 66.58461591 7.15364331 66.58205352 5.4375 66.578125 C4.2155896 66.58419769 4.2155896 66.58419769 2.96899414 66.59039307 C-2.77008072 66.54241928 -2.77008072 66.54241928 -5 64.3125 C-5.25396729 61.73168945 -5.25396729 61.73168945 -5.25878906 58.42578125 C-5.26509338 57.19110107 -5.27139771 55.9564209 -5.27789307 54.68432617 C-5.27431338 53.331216 -5.27021145 51.97810713 -5.265625 50.625 C-5.26697175 49.24259371 -5.26891236 47.86018787 -5.27142334 46.4777832 C-5.27437418 43.57921849 -5.27007836 40.68077697 -5.26074219 37.78222656 C-5.24934755 34.06289363 -5.25590725 30.34384932 -5.26788712 26.62452698 C-5.27510688 23.76954973 -5.27281728 20.91464115 -5.26763153 18.05966187 C-5.26629535 16.68809983 -5.26794166 15.31653161 -5.27259064 13.94497681 C-5.27765748 12.0297253 -5.26856831 10.11445199 -5.25878906 8.19921875 C-5.25719788 7.10826904 -5.25560669 6.01731934 -5.25396729 4.89331055 C-4.87220479 1.01384758 -3.81186426 0.39706919 0 0 Z " fill="#FFFFFF" transform="translate(325,3.6875)"/>
<path d="M0 0 C2.50427567 2.50427567 2.2503773 3.29527458 2.25537109 6.75341797 C2.26233002 7.74139374 2.26928894 8.72936951 2.27645874 9.74728394 C2.27546173 10.81810211 2.27446472 11.88892029 2.2734375 12.9921875 C2.29372698 15.24609871 2.31457778 17.50000493 2.3359375 19.75390625 C2.35855363 23.31791388 2.37501103 26.88172466 2.38085938 30.44580078 C2.39036372 33.87829449 2.42412036 37.30989346 2.4609375 40.7421875 C2.45589203 41.80895721 2.45084656 42.87572693 2.44564819 43.974823 C2.42119281 49.65920731 2.42119281 49.65920731 4.83447266 54.62939453 C7.4512255 56.28558962 10.03340116 57.14298256 13 58 C14 59 14 59 14.0625 62.0625 C14.041875 63.031875 14.02125 64.00125 14 65 C10.61109867 66.906257 8.98214386 66.99744912 5.0625 66.4375 C0.79906157 65.15042425 -1.9581607 63.3248011 -5 60 C-8.15962966 53.49738735 -8.41836334 47.05080866 -8.328125 39.9453125 C-8.32625183 38.92194794 -8.32437866 37.89858337 -8.32244873 36.84420776 C-8.31576696 34.69786279 -8.30193057 32.55152918 -8.28125 30.40527344 C-8.24989347 27.11381768 -8.24025284 23.82284086 -8.234375 20.53125 C-8.22521179 18.4400983 -8.21483821 16.34895147 -8.203125 14.2578125 C-8.19675018 12.78128708 -8.19675018 12.78128708 -8.19024658 11.27493286 C-8.18063904 10.36323334 -8.17103149 9.45153381 -8.16113281 8.51220703 C-8.15430481 7.71106476 -8.14747681 6.90992249 -8.14044189 6.08450317 C-8 4 -8 4 -7 1 C-4.48718205 -0.25640898 -2.78302919 -0.20872719 0 0 Z " fill="#FFFFFF" transform="translate(202,4)"/>
<path d="M0 0 C2.3125 0.875 2.3125 0.875 3.3125 2.875 C3.4169392 4.31427292 3.46114422 5.75816871 3.47363281 7.20117188 C3.48324036 8.09549927 3.4928479 8.98982666 3.50274658 9.91125488 C3.50699646 10.87897827 3.51124634 11.84670166 3.515625 12.84375 C3.52132507 13.83499878 3.52702515 14.82624756 3.53289795 15.84753418 C3.5423529 17.94570852 3.54888389 20.04389774 3.55273438 22.14208984 C3.56246047 25.36191433 3.59348766 28.58110613 3.625 31.80078125 C3.6315278 33.8359337 3.63677915 35.87109072 3.640625 37.90625 C3.6529718 38.87397339 3.6653186 39.84169678 3.67803955 40.83874512 C3.67503845 41.73307251 3.67203735 42.6273999 3.66894531 43.54882812 C3.67259094 44.33777466 3.67623657 45.12672119 3.67999268 45.9395752 C3.55872009 46.57826538 3.43744751 47.21695557 3.3125 47.875 C0.3125 49.875 0.3125 49.875 -2.25 49.6875 C-4.6875 48.875 -4.6875 48.875 -6.6875 45.875 C-6.95492554 43.94667053 -6.95492554 43.94667053 -6.97802734 41.74243164 C-6.99078705 40.91469742 -7.00354675 40.0869632 -7.01669312 39.23414612 C-7.01891876 38.34347946 -7.02114441 37.45281281 -7.0234375 36.53515625 C-7.0300943 35.6166539 -7.0367511 34.69815155 -7.04360962 33.7518158 C-7.05373448 31.809255 -7.05842669 29.86665943 -7.05810547 27.92407227 C-7.06247858 24.95205408 -7.09879926 21.981521 -7.13671875 19.00976562 C-7.14258694 17.12240091 -7.14655632 15.23502915 -7.1484375 13.34765625 C-7.16280853 12.45901382 -7.17717957 11.5703714 -7.19198608 10.65480042 C-7.14652664 4.51632441 -7.14652664 4.51632441 -4.82666016 1.27514648 C-2.6875 -0.125 -2.6875 -0.125 0 0 Z " fill="#FFFFFF" transform="translate(79.6875,21.125)"/>
<path d="M0 0 C2.8125 1.25 2.8125 1.25 3.8125 2.25 C3.5 5.75 3.5 5.75 2.8125 9.25 C0.04999964 10.63125018 -2.13481099 10.44079306 -5.1875 10.25 C-7.1875 8.25 -7.1875 8.25 -7.5625 5.3125 C-7.1875 2.25 -7.1875 2.25 -5.5625 0.25 C-3.1875 -0.75 -3.1875 -0.75 0 0 Z " fill="#FFFFFF" transform="translate(80.1875,5.75)"/>
</svg>
