<?xml version="1.0" encoding="UTF-8"?>
<svg version="1.1" xmlns="http://www.w3.org/2000/svg" width="352" height="121">
<path d="M0 0 C6.41027826 5.40254893 11.96144047 11.79668227 14.30859375 20.01171875 C13.97859375 21.00171875 13.64859375 21.99171875 13.30859375 23.01171875 C12.35984375 22.12484375 11.41109375 21.23796875 10.43359375 20.32421875 C3.71351741 14.59318591 -3.96959889 11.21096726 -12.69140625 10.01171875 C-13.66078125 9.87765625 -14.63015625 9.74359375 -15.62890625 9.60546875 C-29.05463615 8.21223263 -42.33995718 10.10935162 -55.59375 12.26171875 C-56.28559387 12.373414 -56.97743774 12.48510925 -57.69024658 12.60018921 C-61.12158142 13.15719703 -64.54870082 13.73098196 -67.97216797 14.33447266 C-80.57879016 16.45058988 -95.08105777 18.64913921 -106.69140625 12.01171875 C-110.8646693 8.63614234 -112.99945958 3.99356172 -114.69140625 -0.98828125 C-114.36140625 -1.97828125 -114.03140625 -2.96828125 -113.69140625 -3.98828125 C-113.21832031 -3.65054688 -112.74523437 -3.3128125 -112.2578125 -2.96484375 C-101.3263184 4.40805481 -89.10278111 4.16012761 -76.49378967 1.80747986 C-72.09285563 0.93508291 -67.70390324 0.01155127 -63.31640625 -0.92578125 C-60.62318177 -1.48902423 -57.92923191 -2.04864227 -55.23495483 -2.60682678 C-53.57240619 -2.95254954 -51.91058596 -3.30180169 -50.24966431 -3.65525818 C-34.48423566 -6.98343624 -13.70303297 -10.12314046 0 0 Z " fill="#FF8D2A" transform="translate(118.69140625,97.98828125)"/>
<path d="M0 0 C0.9384375 -0.020625 1.876875 -0.04125 2.84375 -0.0625 C14.43695522 -0.12655086 22.8750947 2.95478101 31.125 11.1015625 C35.26525885 15.58089427 38.97772694 20.54564784 41.25 26.25 C40.92 26.91 40.59 27.57 40.25 28.25 C39.57195312 27.71890625 38.89390625 27.1878125 38.1953125 26.640625 C23.91754009 15.80375619 9.98948235 13.53710111 -7.61132812 15.58251953 C-18.2646766 17.12822224 -28.82126262 19.32059098 -39.26025391 21.94238281 C-51.81045265 25.09043679 -68.10587491 27.18778882 -79.75 20.25 C-83.54716393 17.00626887 -86.52231106 13.16075576 -87.75 8.25 C-87.42 7.26 -87.09 6.27 -86.75 5.25 C-85.7290625 6.178125 -85.7290625 6.178125 -84.6875 7.125 C-77.57351567 12.27128654 -69.12106195 12.18256924 -60.66845703 10.9453125 C-48.85212036 8.91417723 -37.17198734 6.01735058 -25.50732422 3.26904297 C-24.45561035 3.0217041 -23.40389648 2.77436523 -22.3203125 2.51953125 C-21.38977051 2.29885986 -20.45922852 2.07818848 -19.50048828 1.85083008 C-12.92613763 0.41469685 -6.70614426 0.03624943 0 0 Z " fill="#FF8D2B" transform="translate(87.75,75.75)"/>
<path d="M0 0 C2.375 1.1875 2.375 1.1875 3.375 3.1875 C3.46010205 5.1468604 3.48217656 7.10912794 3.47265625 9.0703125 C3.47015869 10.12105957 3.46766113 11.17180664 3.46508789 12.25439453 C3.45598389 13.59356934 3.44687988 14.93274414 3.4375 16.3125 C3.416875 20.56125 3.39625 24.81 3.375 29.1875 C12.285 29.1875 21.195 29.1875 30.375 29.1875 C30.29603426 21.14000017 30.29603426 21.14000017 30.19482422 13.09277344 C30.1898291 12.08762695 30.18483398 11.08248047 30.1796875 10.046875 C30.16397705 8.50725098 30.16397705 8.50725098 30.14794922 6.93652344 C30.37977077 4.12973774 30.80880261 2.51231377 32.375 0.1875 C34.8125 -0.75 34.8125 -0.75 37.375 -0.8125 C39.01089478 0.32104492 39.01089478 0.32104492 40.375 2.1875 C40.75595093 4.8059082 40.75595093 4.8059082 40.76318359 7.98828125 C40.77264008 9.1796167 40.78209656 10.37095215 40.7918396 11.59838867 C40.78576691 12.88592041 40.77969421 14.17345215 40.7734375 15.5 C40.77545855 16.83374185 40.77837026 18.16748263 40.78213501 19.5012207 C40.78655696 22.29551726 40.7801319 25.08952598 40.76611328 27.88378906 C40.74902094 31.46524465 40.75886289 35.04602582 40.77683067 38.62745667 C40.78767231 41.38127726 40.78422054 44.13493801 40.7764473 46.88876343 C40.77347329 48.85138385 40.78258292 50.81401048 40.7918396 52.77661133 C40.78238312 53.96794678 40.77292664 55.15928223 40.76318359 56.38671875 C40.76079681 57.43690186 40.75841003 58.48708496 40.75595093 59.5690918 C40.375 62.1875 40.375 62.1875 39.01089478 64.05786133 C37.375 65.1875 37.375 65.1875 34.8125 65.0625 C32.375 64.1875 32.375 64.1875 30.375 61.1875 C30.14794922 58.82739258 30.14794922 58.82739258 30.1796875 56.08203125 C30.18468262 55.19620361 30.18967773 54.31037598 30.19482422 53.39770508 C30.21303223 52.2764624 30.23124023 51.15521973 30.25 50 C30.29125 46.431875 30.3325 42.86375 30.375 39.1875 C21.465 39.1875 12.555 39.1875 3.375 39.1875 C3.49339293 46.24791011 3.49339293 46.24791011 3.64526367 53.30761719 C3.65275635 54.19094727 3.66024902 55.07427734 3.66796875 55.984375 C3.69153442 57.33547363 3.69153442 57.33547363 3.71557617 58.71386719 C3.31261772 61.64058763 2.3094597 63.00091349 0.375 65.1875 C-2.5625 64.8125 -2.5625 64.8125 -5.625 64.1875 C-6.96050141 61.51649717 -6.75214001 59.47518776 -6.75439453 56.484375 C-6.75912277 54.69241699 -6.75912277 54.69241699 -6.76394653 52.86425781 C-6.7619223 51.56842773 -6.75989807 50.27259766 -6.7578125 48.9375 C-6.75848589 47.59993472 -6.75945621 46.26236955 -6.76071167 44.92480469 C-6.76218698 42.12043087 -6.76003943 39.31608888 -6.75537109 36.51171875 C-6.74967389 32.9135281 -6.75295378 29.31541203 -6.75894356 25.71722412 C-6.76255366 22.95490963 -6.76140851 20.19261287 -6.75881577 17.43029785 C-6.75782237 15.45711214 -6.7608642 13.48392574 -6.76394653 11.51074219 C-6.76079437 10.31610352 -6.75764221 9.12146484 -6.75439453 7.890625 C-6.75320114 6.30749512 -6.75320114 6.30749512 -6.75198364 4.69238281 C-6.625 2.1875 -6.625 2.1875 -5.625 0.1875 C-2.625 -0.8125 -2.625 -0.8125 0 0 Z " fill="#FF8D2A" transform="translate(93.625,3.8125)"/>
<path d="M0 0 C7.13606555 4.28163933 11.94295128 8.58841021 14.125 16.875 C15.15154284 25.06401219 13.79675656 31.6199803 9.4375 38.5625 C3.73414834 44.26585166 -2.10001537 46.96967899 -10.125 47.1875 C-11.01703125 47.22488281 -11.9090625 47.26226562 -12.828125 47.30078125 C-16.99681615 46.71823338 -20.23031179 44.90947186 -23.875 42.875 C-23.92398438 44.15117188 -23.97296875 45.42734375 -24.0234375 46.7421875 C-24.09846191 48.41148072 -24.17400988 50.08075046 -24.25 51.75 C-24.29640625 53.01263672 -24.29640625 53.01263672 -24.34375 54.30078125 C-24.40175781 55.50927734 -24.40175781 55.50927734 -24.4609375 56.7421875 C-24.4923584 57.48581543 -24.5237793 58.22944336 -24.55615234 58.99560547 C-24.875 60.875 -24.875 60.875 -26.875 62.875 C-29.375 63.125 -29.375 63.125 -31.875 62.875 C-34.27548184 60.47451816 -34.13312442 59.92041942 -34.16552734 56.64404297 C-34.17828705 55.76908173 -34.19104675 54.89412048 -34.20419312 53.99264526 C-34.20641876 53.0437442 -34.20864441 52.09484314 -34.2109375 51.1171875 C-34.2175943 50.14016876 -34.2242511 49.16315002 -34.23110962 48.15652466 C-34.24125138 46.08353562 -34.24592617 44.01051383 -34.24560547 41.9375 C-34.2499541 38.78329515 -34.28618954 35.63051728 -34.32421875 32.4765625 C-34.33009169 30.46094227 -34.33405789 28.44531541 -34.3359375 26.4296875 C-34.35030853 25.49293182 -34.36467957 24.55617615 -34.37948608 23.59103394 C-34.32997204 16.39820689 -32.69054621 11.08796923 -27.91015625 5.6328125 C-27.25917969 5.09398437 -26.60820312 4.55515625 -25.9375 4 C-25.28910156 3.44570313 -24.64070312 2.89140625 -23.97265625 2.3203125 C-17.28887507 -2.28489986 -7.58645934 -2.91389006 0 0 Z M-21.75 13.5 C-24.38607494 17.68670726 -25.30477426 20.94119149 -24.875 25.875 C-23.57743539 29.95992564 -21.36321407 32.42165836 -18.25 35.3125 C-13.67195166 37.43196682 -9.83861284 37.6740206 -4.875 36.875 C-0.46891257 34.71201163 2.3237497 32.47819521 4.125 27.875 C4.81329606 22.8020031 4.71908188 19.04194654 2.375 14.4375 C-1.41231781 10.12416582 -3.84744603 8.3354694 -9.7890625 7.81640625 C-14.85717774 7.95876904 -18.11311166 10.17936282 -21.75 13.5 Z " fill="#FF8E2A" transform="translate(244.875,22.125)"/>
<path d="M0 0 C2.5 0.25 2.5 0.25 4.5 2.25 C4.81884766 4.31298828 4.81884766 4.31298828 4.9140625 6.8203125 C4.95273437 7.71621094 4.99140625 8.61210937 5.03125 9.53515625 C5.0621875 10.47230469 5.093125 11.40945313 5.125 12.375 C5.16367187 13.31988281 5.20234375 14.26476563 5.2421875 15.23828125 C5.33661346 17.57532375 5.42218394 19.91235501 5.5 22.25 C10.4463871 18.32461064 15.34799318 14.41730718 19.87890625 10.015625 C20.4406958 9.47389648 21.00248535 8.93216797 21.58129883 8.37402344 C22.67288199 7.31166627 23.75277697 6.23713151 24.8190918 5.14941406 C28.53451236 1.54765274 31.31609188 0.30008607 36.5 0.25 C38.5 2.25 38.5 2.25 39.0625 4.4375 C37.62365531 11.63172347 28.62720998 16.68477083 23.234375 21.02734375 C19.57020882 24.0057874 16.02488152 27.10891647 12.5 30.25 C17.76836752 36.76613878 23.77360993 42.19393929 30.125 47.64453125 C31.80208322 49.08480411 33.46368242 50.54159521 35.125 52 C35.65818848 52.44762695 36.19137695 52.89525391 36.74072266 53.35644531 C39.14438697 55.48443468 40.41251271 56.73693895 40.9609375 59.953125 C40.5 62.25 40.5 62.25 38.5 64.25 C35.890625 64.83984375 35.890625 64.83984375 32.5 64.25 C29.44494997 62.0814739 26.88214557 59.46848587 24.25 56.8125 C22.74685412 55.34427323 21.24295071 53.87682159 19.73828125 52.41015625 C19.01463379 51.69617676 18.29098633 50.98219727 17.54541016 50.24658203 C13.65169407 46.44581691 9.56649419 42.86374127 5.5 39.25 C5.47494385 39.97179443 5.4498877 40.69358887 5.42407227 41.43725586 C5.30848698 44.687535 5.18559226 47.93749688 5.0625 51.1875 C5.02318359 52.32380859 4.98386719 53.46011719 4.94335938 54.63085938 C4.90146484 55.71044922 4.85957031 56.79003906 4.81640625 57.90234375 C4.76141968 59.40269165 4.76141968 59.40269165 4.70532227 60.93334961 C4.5 63.25 4.5 63.25 3.5 64.25 C1.16702567 64.29092937 -1.16705225 64.29241723 -3.5 64.25 C-4.83427444 61.58145112 -4.6344715 59.53503778 -4.64526367 56.546875 C-4.65164352 55.35223633 -4.65802338 54.15759766 -4.66459656 52.92675781 C-4.66570938 51.63092773 -4.6668222 50.33509766 -4.66796875 49 C-4.6711808 47.66243453 -4.67454483 46.32486941 -4.67805481 44.98730469 C-4.68404582 42.18293442 -4.68589469 39.37859497 -4.68530273 36.57421875 C-4.685201 32.9759727 -4.69886508 29.37792347 -4.71607494 25.77972412 C-4.72717695 23.01740608 -4.72922252 20.25513593 -4.72869301 17.49279785 C-4.73045129 15.5195978 -4.7413016 13.54641269 -4.75224304 11.57324219 C-4.74916641 10.37860352 -4.74608978 9.18396484 -4.74291992 7.953125 C-4.74434494 6.89770508 -4.74576996 5.84228516 -4.74723816 4.75488281 C-4.40201388 1.25725779 -3.49759516 0.34975952 0 0 Z " fill="#FF8E2A" transform="translate(267.5,3.75)"/>
<path d="M0 0 C6.26005469 4.92842025 9.89753022 10.20467479 11.53125 17.96484375 C11.78125 21.40234375 11.78125 21.40234375 9.78125 25.40234375 C-2.09875 25.40234375 -13.97875 25.40234375 -26.21875 25.40234375 C-23.04758013 32.25032384 -23.04758013 32.25032384 -18.96875 34.40234375 C-13.49523811 35.86194692 -9.33831283 34.88224477 -3.90625 33.65234375 C-1.21875 33.40234375 -1.21875 33.40234375 0.71875 34.46484375 C1.78125 36.40234375 1.78125 36.40234375 1.90625 39.40234375 C0.78125 42.40234375 0.78125 42.40234375 -2.03125 44.27734375 C-8.85571525 46.61756079 -16.50232709 46.44750658 -23.15625 43.71484375 C-29.13804455 40.63756677 -32.80594318 36.13098377 -36.21875 30.40234375 C-38.36812833 23.56732067 -38.12203427 16.51097803 -35.09375 10.02734375 C-31.84141123 4.26266463 -27.7052979 0.34880894 -21.3984375 -2.08984375 C-14.31580538 -3.73991933 -6.36736999 -3.79074358 0 0 Z M-25.09375 12.46484375 C-26.46981776 14.46133305 -26.46981776 14.46133305 -26.21875 17.40234375 C-17.30875 17.40234375 -8.39875 17.40234375 0.78125 17.40234375 C-0.45107015 11.24074301 -1.42711629 10.9227277 -6.21875 7.40234375 C-13.31407232 3.85468259 -20.12344354 6.99750665 -25.09375 12.46484375 Z " fill="#FF8E2A" transform="translate(174.21875,23.59765625)"/>
<path d="M0 0 C4.71465381 1.34704395 7.42465735 3.93020668 10 8 C16.1486677 23.22527239 8.66351029 40.20565431 2.79150391 54.39404297 C-1.65755932 64.82839304 -6.77668277 74.93581061 -12 85 C-17.14479773 84.08299597 -19.16457223 82.47864379 -23 79 C-22.3676977 74.64340136 -20.79370752 71.21875279 -18.83203125 67.29296875 C-18.1789737 65.96943201 -17.52598118 64.64586317 -16.87304688 63.32226562 C-15.85320483 61.27264723 -14.83091017 59.22428907 -13.80639648 57.17700195 C0.03093969 30.91427461 0.03093969 30.91427461 1 2.5 C0.67 1.675 0.34 0.85 0 0 Z " fill="#979797" transform="translate(24,0)"/>
<path d="M0 0 C5.26662809 1.39410743 7.97425185 4.69447922 11 9 C15.94469432 18.66462981 12.72343161 30.9198608 9.73632812 40.74609375 C6.21856325 51.51400001 1.66501515 61.96039314 -3.1875 72.1875 C-3.6501123 73.20360352 -3.6501123 73.20360352 -4.12207031 74.24023438 C-6.32634673 78.70488757 -6.32634673 78.70488757 -9.11328125 79.92578125 C-13.41134271 80.03628621 -17.70102316 80.07512775 -22 80 C-21.764021 79.50298584 -21.52804199 79.00597168 -21.28491211 78.49389648 C-20.95241455 77.79337158 -20.61991699 77.09284668 -20.27734375 76.37109375 C-19.90714111 75.59113037 -19.53693848 74.81116699 -19.15551758 74.00756836 C-18.33488541 72.27599994 -17.515742 70.54372528 -16.69799805 68.81079102 C-14.83960702 64.87271157 -12.97782184 60.93818538 -11.0546875 57.03125 C-2.38863147 39.15508061 5.26511856 19.88522455 0 0 Z " fill="#939393" transform="translate(35,6)"/>
<path d="M0 0 C2.4375 0.875 2.4375 0.875 4.4375 3.875 C4.67800903 6.20988464 4.67800903 6.20988464 4.66455078 8.98901367 C4.66432419 10.55029243 4.66432419 10.55029243 4.66409302 12.14311218 C4.65377045 13.26506485 4.64344788 14.38701752 4.6328125 15.54296875 C4.6299826 16.69291824 4.62715271 17.84286774 4.62423706 19.02766418 C4.61302833 22.70604796 4.58792224 26.38418962 4.5625 30.0625 C4.55247111 32.55403295 4.5433451 35.0455697 4.53515625 37.53710938 C4.51308673 43.64982241 4.47960224 49.76239391 4.4375 55.875 C5.26999268 55.85928955 6.10248535 55.8435791 6.96020508 55.82739258 C10.05197856 55.77623358 13.14353618 55.7386352 16.2355957 55.71020508 C18.23077701 55.68771667 20.22576213 55.64959802 22.22070312 55.61132812 C23.47431641 55.60166016 24.72792969 55.59199219 26.01953125 55.58203125 C27.17686768 55.5663208 28.3342041 55.55061035 29.52661133 55.53442383 C32.4375 55.875 32.4375 55.875 34.35424805 57.22924805 C35.4375 58.875 35.4375 58.875 35.1875 61.5 C34.4375 63.875 34.4375 63.875 33.4375 64.875 C30.72195608 64.98840974 28.03279957 65.0391802 25.31640625 65.04296875 C24.0937632 65.04796135 24.0937632 65.04796135 22.84642029 65.05305481 C21.11889207 65.05812742 19.39135402 65.06046303 17.66381836 65.06030273 C15.01464755 65.06248792 12.36589384 65.08063621 9.71679688 65.09960938 C8.0416681 65.10254344 6.36653733 65.10452815 4.69140625 65.10546875 C3.89553604 65.11265427 3.09966583 65.11983978 2.27967834 65.12724304 C-3.33367773 65.10382227 -3.33367773 65.10382227 -5.5625 62.875 C-5.82319641 60.37684631 -5.82319641 60.37684631 -5.8371582 57.18774414 C-5.84669022 55.99633316 -5.85622223 54.80492218 -5.86604309 53.57740784 C-5.86513168 52.28471481 -5.86422028 50.99202179 -5.86328125 49.66015625 C-5.86716711 48.32498541 -5.87150155 46.98981581 -5.87626648 45.65464783 C-5.88373374 42.85444128 -5.88343396 40.05436079 -5.87817383 37.25415039 C-5.87238021 33.66485158 -5.8893044 30.07606896 -5.9125185 26.48685551 C-5.92724804 23.72876465 -5.92812862 20.97079831 -5.92500877 18.21267509 C-5.92577234 16.24560654 -5.93965364 14.27855732 -5.95368958 12.3115387 C-5.94746078 11.11697556 -5.94123199 9.92241241 -5.93481445 8.69165039 C-5.93544388 7.63845108 -5.9360733 6.58525177 -5.9367218 5.50013733 C-5.5625 2.875 -5.5625 2.875 -4.1993866 1.00364685 C-2.5625 -0.125 -2.5625 -0.125 0 0 Z " fill="#FF8E2A" transform="translate(316.5625,3.125)"/>
<path d="M0 0 C2.5 0.25 2.5 0.25 4.5 2.25 C4.75828552 4.28585815 4.75828552 4.28585815 4.77124023 6.81982422 C4.78142685 7.76775848 4.79161346 8.71569275 4.80210876 9.69235229 C4.80424881 10.71942291 4.80638885 11.74649353 4.80859375 12.8046875 C4.83375418 14.96745061 4.8591522 17.13021096 4.88476562 19.29296875 C4.91352442 22.71206957 4.9375336 26.13112254 4.95629883 29.55029297 C4.97792519 32.84367902 5.01736561 36.13649714 5.05859375 39.4296875 C5.05870956 40.45270966 5.05882538 41.47573181 5.0589447 42.52975464 C5.07228348 43.48399323 5.08562225 44.43823181 5.09936523 45.42138672 C5.10443588 46.25918671 5.10950653 47.09698669 5.11473083 47.96017456 C5.59559474 50.81816193 6.5019731 52.16870928 8.5 54.25 C12.05672179 55.4688121 12.05672179 55.4688121 15.5 56.25 C15.995 56.745 15.995 56.745 16.5 57.25 C16.21269945 59.58944736 15.88063221 61.9239143 15.5 64.25 C11.18416868 65.5735216 7.64639382 64.86868836 3.5 63.25 C-0.69895506 60.71773543 -3.00233082 57.92191576 -4.5 53.25 C-4.75396729 50.72602844 -4.75396729 50.72602844 -4.75878906 48.0324707 C-4.76509338 47.01824539 -4.77139771 46.00402008 -4.77789307 44.95906067 C-4.7738446 43.87557846 -4.76979614 42.79209625 -4.765625 41.67578125 C-4.76753845 40.55560104 -4.7694519 39.43542084 -4.77142334 38.28129578 C-4.77278225 35.91856664 -4.76910635 33.55582996 -4.76074219 31.19311523 C-4.75000865 27.56542347 -4.76066313 23.93822356 -4.7734375 20.31054688 C-4.77211644 18.0156239 -4.76955517 15.72070124 -4.765625 13.42578125 C-4.76967346 12.33622635 -4.77372192 11.24667145 -4.77789307 10.12409973 C-4.76843658 8.61694649 -4.76843658 8.61694649 -4.75878906 7.0793457 C-4.75719788 6.19285843 -4.75560669 5.30637115 -4.75396729 4.39302063 C-4.36318966 1.09557032 -3.23521161 0.32352116 0 0 Z " fill="#FF8D2A" transform="translate(193.5,3.75)"/>
<path d="M0 0 C0.94875 0.04125 1.8975 0.0825 2.875 0.125 C4.45662358 2.93489814 5.12814909 4.96795015 5.1496582 8.1875 C5.15919022 8.97511719 5.16872223 9.76273438 5.17854309 10.57421875 C5.17763168 11.41597656 5.17672028 12.25773437 5.17578125 13.125 C5.18006638 13.99769531 5.1843515 14.87039062 5.18876648 15.76953125 C5.19450145 17.61197035 5.19501618 19.45443209 5.19067383 21.296875 C5.18751125 24.11497566 5.21099197 26.93202888 5.23632812 29.75 C5.23860095 31.54166534 5.23930469 33.33333351 5.23828125 35.125 C5.247491 35.96675781 5.25670074 36.80851562 5.26618958 37.67578125 C5.2197751 43.54479165 5.2197751 43.54479165 3.35229492 46.6875 C2.8647876 47.161875 2.37728027 47.63625 1.875 48.125 C-1.0625 47.75 -1.0625 47.75 -4.125 47.125 C-5.27101494 44.83297012 -5.25737239 43.5304331 -5.27026367 40.98242188 C-5.27664352 40.12813599 -5.28302338 39.2738501 -5.28959656 38.39367676 C-5.29070938 37.46970093 -5.2918222 36.5457251 -5.29296875 35.59375 C-5.29629715 34.64689331 -5.29962555 33.70003662 -5.30305481 32.7244873 C-5.30812246 30.72046394 -5.31046319 28.71643211 -5.31030273 26.71240234 C-5.31249106 23.63755497 -5.33065354 20.56306519 -5.34960938 17.48828125 C-5.35254289 15.54427207 -5.35452797 13.60026117 -5.35546875 11.65625 C-5.36265427 10.73227417 -5.36983978 9.80829834 -5.37724304 8.85632324 C-5.37416641 8.00203735 -5.37108978 7.14775146 -5.36791992 6.26757812 C-5.36934494 5.51416138 -5.37076996 4.76074463 -5.37223816 3.98449707 C-4.89806691 0.41821892 -3.35974487 0.13438979 0 0 Z " fill="#FF8E2A" transform="translate(76.125,20.875)"/>
<path d="M0 0 C2.31 0.33 4.62 0.66 7 1 C8.32561852 7.38707103 8.32561852 7.38707103 6.9375 10 C5 11 5 11 1.9375 11 C-1 10 -1 10 -2.5625 7.75 C-3 5 -3 5 -1.625 2.1875 C-1.08875 1.465625 -0.5525 0.74375 0 0 Z " fill="#FF8E29" transform="translate(73,5)"/>
<path d="" fill="#747474" transform="translate(0,0)"/>
</svg>
